<svg xmlns="http://www.w3.org/2000/svg" width="25.09" height="20.136" viewBox="0 0 25.09 20.136">
  <path id="delete" d="M340,135H325.1a1.936,1.936,0,0,0-1.7.957l-5.4,8.611,5.4,8.611a2.193,2.193,0,0,0,1.7.957H340a2.072,2.072,0,0,0,2-2.126V137.126A2.072,2.072,0,0,0,340,135Zm-3,13.4-1.4,1.488-3.6-3.827-3.6,3.827L327,148.4l3.6-3.827-3.6-3.827,1.4-1.488,3.6,3.827,3.6-3.827,1.4,1.488-3.6,3.827L337,148.4Z" transform="translate(-317.41 -134.5)" fill="#fa4c3c" stroke="rgba(255,255,255,0)" stroke-width="1" fill-rule="evenodd" opacity="0.7"/>
</svg>
